<?xml version="1.0" encoding="UTF-8"?>
<svg id="Layer_2" data-name="Layer 2" xmlns="http://www.w3.org/2000/svg" viewBox="0 0 43.11 43.37">
  <g id="Layer_1-2" data-name="Layer 1">
    <g>
      <path d="M21.97,30.43c-3.62,0-7.02-1.41-9.57-3.97-2.21-2.21-3.59-5.13-3.9-8.23-.04-.4,.25-.76,.65-.8,.4-.04,.76,.25,.8,.65,.27,2.77,1.51,5.37,3.48,7.34,4.71,4.71,12.37,4.71,17.08,0s4.71-12.37,0-17.08c-2.28-2.28-5.32-3.54-8.54-3.54-.4,0-.73-.33-.73-.73s.33-.73,.73-.73c3.62,0,7.02,1.41,9.57,3.96,5.28,5.28,5.28,13.87,0,19.15-2.56,2.56-5.96,3.97-9.57,3.97Z"/>
      <path d="M20.8,4.87c-.37,0-.69-.28-.73-.66-.04-.4,.26-.76,.66-.79,.41-.04,.82-.06,1.23-.06s.73,.33,.73,.73-.33,.73-.73,.73c-.37,0-.73,.02-1.1,.05-.02,0-.04,0-.07,0Z"/>
      <path d="M10,13.06c-.09,0-.17-.02-.26-.05-.38-.14-.56-.56-.42-.94,.3-.78,.67-1.54,1.11-2.26,.21-.34,.66-.45,1-.24,.34,.21,.45,.66,.24,1-.39,.64-.72,1.31-.99,2.01-.11,.29-.39,.47-.68,.47Zm4.23-5.64c-.22,0-.44-.1-.58-.29-.24-.32-.18-.78,.14-1.02,.67-.51,1.39-.95,2.13-1.33,.36-.18,.8-.03,.98,.33,.18,.36,.03,.8-.33,.98-.67,.33-1.31,.73-1.9,1.18-.13,.1-.29,.15-.44,.15Z"/>
      <path d="M9.22,18.89c-.37,0-.69-.28-.72-.66-.04-.41-.06-.83-.07-1.23,0-.4,.32-.73,.72-.73,.41,0,.73,.32,.73,.72,0,.36,.02,.73,.06,1.1,.04,.4-.25,.76-.65,.8-.02,0-.05,0-.07,0Z"/>
      <path d="M5.31,38.86c-.19,0-.37-.07-.52-.21-.28-.28-.28-.75,0-1.03l4.75-4.75-3.55-3.55-4.75,4.75c-.28,.28-.75,.28-1.03,0-.28-.28-.28-.75,0-1.03l5.27-5.27c.14-.14,.32-.21,.52-.21s.38,.08,.52,.21l4.58,4.58c.28,.28,.28,.75,0,1.03l-5.27,5.27c-.14,.14-.33,.21-.52,.21Z"/>
      <path d="M12.43,34.89c-.53,0-1.06-.2-1.47-.61l-6.39-6.39c-.81-.81-.81-2.12,0-2.93l2.09-2.08c.17-.17,.41-.25,.65-.2,.24,.04,.44,.2,.53,.42,.78,1.78,1.86,3.36,3.21,4.71,1.35,1.35,2.93,2.43,4.71,3.21,.22,.1,.38,.3,.42,.53,.04,.24-.03,.48-.2,.65l-2.08,2.08c-.4,.4-.94,.61-1.47,.61Zm-5.47-10.25l-1.35,1.35c-.24,.24-.24,.63,0,.87l6.39,6.39c.23,.23,.64,.23,.87,0l1.35-1.35c-1.56-.8-2.97-1.83-4.2-3.06s-2.26-2.64-3.06-4.2Z"/>
      <path d="M21.97,30.43c-.39,0-.78-.02-1.17-.05-.34-.03-.61-.29-.66-.62-.53-3.66-.53-6.39-.53-6.5,0-4.71,3.43-8.55,7.65-8.55,1.46,0,2.87,.46,4.1,1.33,.98-.69,2.08-1.13,3.24-1.27,.19-.03,.39,.03,.54,.15,.15,.12,.25,.3,.27,.49,.45,4.11-.96,8.14-3.88,11.06-2.55,2.55-5.98,3.96-9.57,3.96Zm-.47-1.47c3.37,.13,6.62-1.14,9.01-3.52,2.41-2.41,3.67-5.68,3.52-9.07-.79,.22-1.54,.61-2.2,1.16-.27,.22-.66,.23-.93,0-1.07-.89-2.32-1.36-3.63-1.36-3.42,0-6.2,3.18-6.2,7.09,0,.03,0,2.45,.43,5.71Z"/>
      <path d="M36.57,43.37c-.21,0-.42-.03-.62-.09-1.08-.31-1.81-1.33-1.81-2.55v-3.11c0-1.78-1.24-3.23-2.77-3.23s-2.77,1.45-2.77,3.23v3.11c0,1.22-.73,2.24-1.81,2.55-1,.29-2.04-.14-2.62-1.08-1.46-2.37-2.6-5.4-3.4-9.01-.05-.22,0-.45,.15-.62,.14-.17,.35-.29,.58-.26,4.31,.12,8.36-1.47,11.39-4.5,3.08-3.08,4.72-7.37,4.48-11.75-.01-.26,.11-.5,.32-.64s.48-.16,.72-.06c2.86,1.33,4.71,4.43,4.71,7.89,0,.47-.03,11.64-4.55,18.95-.46,.75-1.2,1.17-1.99,1.17Zm-5.21-10.43c2.33,0,4.23,2.1,4.23,4.68v3.11c0,.69,.4,1.05,.75,1.15,.18,.05,.64,.11,.98-.44,4.3-6.96,4.33-18.08,4.33-18.19,0-2.44-1.07-4.65-2.81-5.94-.11,4.32-1.86,8.47-4.93,11.53-3.1,3.1-7.16,4.83-11.52,4.93,.74,3.06,1.75,5.64,3.01,7.67,.34,.55,.8,.5,.98,.44,.35-.1,.75-.46,.75-1.15v-3.11c0-2.58,1.9-4.68,4.23-4.68Z"/>
      <path d="M21.97,33.79c-4.51,0-8.76-1.76-11.95-4.95-6.59-6.59-6.59-17.31,0-23.9,6.59-6.59,17.31-6.59,23.9,0,3.19,3.19,4.95,7.44,4.95,11.95s-1.76,8.76-4.95,11.95c-3.19,3.19-7.44,4.95-11.95,4.95ZM21.97,1.46c-3.95,0-7.91,1.51-10.92,4.52-6.02,6.02-6.02,15.82,0,21.84,2.92,2.92,6.79,4.52,10.92,4.52s8-1.61,10.92-4.52c2.92-2.92,4.52-6.79,4.52-10.92s-1.61-8-4.52-10.92c-3.01-3.01-6.96-4.52-10.92-4.52Z"/>
      <path d="M22,11.48c-.4,0-.73-.33-.73-.73v-2.04c0-.4,.33-.73,.73-.73s.73,.33,.73,.73v2.04c0,.4-.33,.73-.73,.73Z"/>
      <path d="M23.02,10.45h-2.04c-.4,0-.73-.33-.73-.73s.33-.73,.73-.73h2.04c.4,0,.73,.33,.73,.73s-.33,.73-.73,.73Z"/>
      <path d="M15.17,18.64c-.4,0-.73-.33-.73-.73v-2.04c0-.4,.33-.73,.73-.73s.73,.33,.73,.73v2.04c0,.4-.33,.73-.73,.73Z"/>
      <path d="M16.19,17.62h-2.04c-.4,0-.73-.33-.73-.73s.33-.73,.73-.73h2.04c.4,0,.73,.33,.73,.73s-.33,.73-.73,.73Z"/>
    </g>
  </g>
</svg>