<?xml version="1.0" encoding="UTF-8"?>
<svg id="Layer_2" data-name="Layer 2" xmlns="http://www.w3.org/2000/svg" viewBox="0 0 1163.69 157.89">
  <defs>
    <style>
      .cls-1 {
        fill: #599dd3;
      }

      .cls-2 {
        fill: #6fc6cc;
      }
    </style>
  </defs>
  <g id="Layer_1-2" data-name="Layer 1">
    <g>
      <path class="cls-1" d="M0,0H62.61c45.99,0,76.04,30.29,76.04,76.97s-29.17,80.93-77.48,80.93H0V0ZM34.14,130.31h25.6c30.27,0,43.65-22.51,43.65-53.26,0-25.79-12.53-49.47-43.45-49.47h-25.8v102.73Z"/>
      <path class="cls-1" d="M297.54,157.89V0h42.31c19.72,35.45,56.17,99.39,63.43,116.6h.43c-1.78-16.48-1.75-43.9-1.75-69.8V0h30.94V157.89h-40.13c-16.96-30.85-57.35-104.3-65.18-122.54h-.43c1.15,13.81,1.52,46.24,1.52,74.52v48.02h-31.14Z"/>
      <path class="cls-1" d="M502.57,27.98h-47.97V0h129.94V27.98h-47.8V157.89h-34.17V27.98Z"/>
      <path class="cls-1" d="M640.32,0V157.89h-34.14V0h34.14Z"/>
      <path class="cls-1" d="M844.35,157.89v-55.8c0-1.78-.26-3.38-1.32-5.08L788.6,0h38.62c12.2,23.83,28.04,55.51,35.92,72.66,6.87-16.55,24.15-49.79,36.09-72.66h35.72l-55.14,96.53c-.66,1.12-1.29,1.83-1.29,5.05v56.32h-34.17Z"/>
      <path class="cls-1" d="M1005.26,69.04v20.75h-63.76v-20.75h63.76Z"/>
      <g>
        <rect class="cls-1" x="161.16" width="111.63" height="27.98"/>
        <polygon class="cls-1" points="161.16 129.91 161.16 157.89 273.39 157.89 272.79 129.91 161.16 129.91"/>
        <rect class="cls-1" x="161.16" y="61.81" width="111.63" height="27.98"/>
      </g>
      <g>
        <polygon class="cls-1" points="664.04 66.67 664.04 157.89 697.38 157.89 697.38 94.65 769.39 94.65 769.39 66.67 697.38 66.67 664.04 66.67"/>
        <rect class="cls-1" x="664.04" width="110.21" height="27.94"/>
      </g>
      <g>
        <polyline class="cls-1" points="1161.28 0 1125.08 0 1092.07 52.35 1091.84 52.35 1059.95 0 1020.32 0 1071.35 78.38 1018.83 157.89 1055.64 157.89"/>
        <polygon class="cls-2" points="1140.7 122.2 1102.54 122.2 1124.24 157.89 1163.69 157.89 1140.7 122.2"/>
      </g>
    </g>
  </g>
</svg>