<?xml version="1.0" encoding="UTF-8"?>
<svg id="Layer_2" data-name="Layer 2" xmlns="http://www.w3.org/2000/svg" viewBox="0 0 579.8 86.54">
  <defs>
    <style>
      .cls-1 {
        fill: #ccc;
      }
    </style>
  </defs>
  <g id="Layer_1-2" data-name="Layer 1">
    <g>
      <g>
        <path class="cls-1" d="M452.93,20.57c-.11,0-.22-.01-.33-.04-6.18-1.62-9.79-4.87-9.94-5-.52-.48-.56-1.29-.09-1.81,.48-.52,1.29-.56,1.81-.09,.06,.06,3.36,2.97,8.87,4.42,.69,.18,1.1,.88,.92,1.57-.15,.58-.67,.96-1.24,.96Z"/>
        <path class="cls-1" d="M458.29,86.39c-.54,0-1.09-.08-1.63-.24-2.68-.78-4.49-3.31-4.49-6.29v-8.54c0-5.28-3.88-9.57-8.64-9.57s-8.64,4.29-8.64,9.57v8.54c0,2.98-1.8,5.51-4.49,6.29-2.53,.74-5.13-.29-6.61-2.62-5.07-7.95-5.72-14.05-6.48-21.12-.21-1.98-.43-4.02-.76-6.22-2.78-4.26-4.51-9.18-4.98-14.24-.57-6-.56-9.94-.56-10.1,0-12.54,9.38-22.75,20.92-22.75,4.16,0,8.16,1.33,11.61,3.85,3.46-2.52,7.45-3.85,11.61-3.85,11.53,0,20.92,10.21,20.92,22.75,0,.16,0,4.1-.56,10.1-.48,5.06-2.2,9.98-4.98,14.24-.33,2.2-.55,4.24-.76,6.22-.76,7.07-1.41,13.17-6.48,21.12-1.17,1.83-3.01,2.85-4.98,2.85Zm-14.76-27.21c6.18,0,11.21,5.45,11.21,12.14v8.54c0,2.26,1.42,3.47,2.64,3.83,1.45,.42,2.84-.15,3.72-1.53,4.75-7.44,5.34-12.99,6.1-20.01,.22-2.09,.46-4.24,.81-6.61,.03-.19,.1-.36,.2-.52,2.64-3.96,4.28-8.56,4.72-13.3,.55-5.88,.55-9.82,.55-9.86,0-11.13-8.23-20.18-18.35-20.18-3.9,0-7.64,1.35-10.81,3.9-.47,.38-1.14,.38-1.61,0-3.17-2.55-6.91-3.9-10.81-3.9-10.12,0-18.35,9.05-18.35,20.18,0,.04,0,3.99,.55,9.86,.45,4.74,2.08,9.34,4.72,13.3,.1,.16,.17,.33,.2,.52,.36,2.36,.59,4.52,.81,6.61,.75,7.02,1.35,12.57,6.1,20.01,.88,1.38,2.27,1.96,3.72,1.53,1.22-.35,2.64-1.57,2.64-3.83v-8.54c0-6.69,5.03-12.14,11.21-12.14Z"/>
        <path class="cls-1" d="M426.81,29.35c-.71,0-1.28-.58-1.28-1.28v-7.77c0-.71,.58-1.28,1.28-1.28s1.28,.57,1.28,1.28v7.77c0,.71-.58,1.28-1.28,1.28Z"/>
        <path class="cls-1" d="M430.7,25.47h-7.77c-.71,0-1.28-.58-1.28-1.28s.58-1.28,1.28-1.28h7.77c.71,0,1.28,.58,1.28,1.28s-.58,1.28-1.28,1.28Z"/>
      </g>
      <g>
        <path class="cls-1" d="M55.56,23.42c-.12,0-.24-.02-.37-.05-5.78-1.57-9.16-4.71-9.3-4.84-.56-.53-.59-1.41-.06-1.98,.53-.56,1.41-.59,1.98-.06,.06,.05,3.08,2.81,8.12,4.18,.75,.2,1.19,.97,.98,1.72-.17,.62-.73,1.03-1.35,1.03Z"/>
        <path class="cls-1" d="M21.19,40.44c-.06,0-.13,0-.19-.01-.5-.07-.92-.4-1.1-.86-.77-1.93-1.17-3.95-1.17-6.01,0-8.89,7.24-16.13,16.13-16.13,.72,0,1.47,.06,2.35,.19,.36,.05,.69,.25,.91,.54l2.29,3.02c.25,.33,.34,.76,.24,1.17l-1.38,5.71c-.11,.44-.42,.8-.84,.97l-5.38,2.15-3.14,3.58c-.16,.18-.36,.32-.58,.4l-4.65,1.66-2.38,3.07c-.27,.34-.68,.54-1.1,.54Zm13.66-20.22c-7.35,0-13.33,5.98-13.33,13.33,0,.83,.08,1.66,.23,2.48l.96-1.24c.16-.21,.38-.37,.63-.46l4.69-1.68,3.12-3.56c.15-.17,.33-.3,.53-.38l5.02-2.01,1.05-4.37-1.54-2.03c-.5-.06-.95-.09-1.38-.09Z"/>
        <path class="cls-1" d="M60.52,86.39c-.49,0-.99-.07-1.49-.21-2.62-.74-4.38-3.24-4.38-6.21v-8.17c0-4.96-3.5-8.99-7.8-8.99s-7.8,4.03-7.8,8.99v8.17c0,2.97-1.76,5.46-4.38,6.21-2.42,.68-4.89-.34-6.3-2.62-8.04-13.02-10.61-31.1-11.43-40.73-.03-.35,.07-.7,.29-.98l5.49-7.07c.16-.21,.38-.37,.63-.46l4.69-1.68,3.12-3.56c.15-.17,.33-.3,.53-.38l5.02-2.01,1.05-4.37-2.36-3.11c-.24-.31-.33-.72-.26-1.1l.91-4.81c.13-.7,.77-1.21,1.49-1.13,3.32,.28,6.51,1.5,9.28,3.56,3.21-2.38,6.91-3.63,10.76-3.63,10.8,0,19.59,9.84,19.59,21.94,0,1.23-.08,30.42-11.87,49.52-1.11,1.81-2.9,2.82-4.8,2.82Zm-13.68-26.38c5.84,0,10.6,5.29,10.6,11.79v8.17c0,2.1,1.27,3.21,2.35,3.51,1.22,.35,2.4-.18,3.15-1.39,11.38-18.42,11.46-47.75,11.46-48.05,0-10.56-7.53-19.14-16.79-19.14-3.56,0-6.97,1.27-9.87,3.68-.52,.43-1.27,.43-1.79,0-2.2-1.82-4.73-3.01-7.38-3.47l-.55,2.91,2.38,3.14c.25,.33,.34,.76,.24,1.17l-1.38,5.71c-.11,.44-.42,.8-.84,.97l-5.38,2.15-3.14,3.58c-.16,.18-.36,.32-.58,.4l-4.65,1.66-4.9,6.31c.84,9.5,3.39,26.67,10.97,38.95,.75,1.22,1.93,1.74,3.15,1.39,1.08-.31,2.35-1.41,2.35-3.51v-8.17c0-6.5,4.75-11.79,10.6-11.79Z"/>
        <path class="cls-1" d="M13.22,39.53c-.55,0-1.03-.4-1.11-.96l-2.13-14.42-4.22,3.51c-.3,.25-.71,.33-1.08,.2-.37-.13-.65-.44-.73-.82L.03,9.01c-.13-.6,.25-1.2,.85-1.33,.6-.14,1.2,.25,1.33,.85l3.54,16.23,4.34-3.61c.31-.26,.74-.33,1.11-.18,.38,.14,.65,.48,.71,.88l.47,3.16,.15-7.04-4.2,2.34c-.34,.19-.76,.19-1.1,0-.34-.2-.55-.56-.56-.95L6.35,1.14C6.34,.52,6.83,.01,7.45,0c.6-.03,1.13,.48,1.14,1.1l.28,16.35,4.27-2.38c.35-.2,.78-.19,1.12,.02,.34,.21,.55,.58,.54,.98l-.46,22.36c-.01,.58-.47,1.06-1.05,1.09-.02,0-.05,0-.07,0Z"/>
        <path class="cls-1" d="M25.43,23.35c-.2,0-.4-.05-.58-.16-.41-.25-.62-.73-.51-1.2l1.1-5.04-3.56,1.23c-.37,.13-.78,.05-1.08-.2-.3-.25-.45-.64-.39-1.03l2.06-14.05c.09-.61,.64-1.04,1.27-.94,.61,.09,1.03,.66,.94,1.27l-1.79,12.23,3.7-1.28c.38-.13,.81-.05,1.11,.22,.3,.27,.44,.68,.35,1.08l-.85,3.89,3.71-7.34-3,.45c-.39,.05-.78-.09-1.03-.4-.25-.3-.32-.72-.19-1.09l2.68-7.49c.21-.58,.85-.89,1.43-.68,.58,.21,.89,.85,.68,1.43l-2.05,5.73,3.3-.49c.41-.06,.83,.11,1.07,.45,.24,.34,.28,.79,.09,1.16l-5.04,9.98c-.1,.2-.26,.37-.46,.48-.78,.42-1.53,.93-2.22,1.51-.21,.17-.46,.26-.72,.26Z"/>
      </g>
      <g>
        <path class="cls-1" d="M242.1,86.39c-.48,0-.97-.07-1.46-.21-2.56-.73-4.28-3.17-4.28-6.07v-8.14c0-4.99-3.53-9.06-7.87-9.06s-7.87,4.06-7.87,9.06v8.14c0,2.91-1.72,5.35-4.28,6.07-2.36,.67-4.77-.33-6.15-2.56-11.72-18.98-11.8-48.01-11.8-49.24,0-11.98,8.7-21.73,19.39-21.73,2.59,0,5.11,.57,7.49,1.7,.64,.3,.92,1.07,.61,1.71-.3,.64-1.07,.92-1.71,.61-2.03-.96-4.18-1.45-6.39-1.45-9.28,0-16.82,8.6-16.82,19.16,0,.3,.09,29.53,11.42,47.89,.78,1.26,1.99,1.8,3.26,1.43,1.11-.32,2.42-1.45,2.42-3.6v-8.14c0-6.41,4.68-11.62,10.44-11.62s10.44,5.22,10.44,11.62v8.14c0,2.15,1.3,3.29,2.42,3.6,1.26,.36,2.48-.18,3.26-1.43,6.17-9.99,8.96-23.16,10.22-32.44,.1-.7,.74-1.19,1.45-1.1,.7,.1,1.2,.74,1.1,1.45-1.29,9.54-4.18,23.08-10.58,33.45-1.09,1.76-2.83,2.76-4.69,2.76Z"/>
        <path class="cls-1" d="M239.58,59.65c-.33,0-.66-.13-.91-.38-.5-.5-.5-1.31,0-1.82l15.33-15.33-22.15-22.15-15.33,15.33c-.5,.5-1.31,.5-1.82,0s-.5-1.31,0-1.82l16.24-16.24c.48-.48,1.33-.48,1.82,0l23.97,23.97c.24,.24,.38,.57,.38,.91s-.14,.67-.38,.91l-16.24,16.24c-.25,.25-.58,.38-.91,.38Z"/>
        <path class="cls-1" d="M240.23,52.2c-.33,0-.66-.13-.91-.38-.5-.5-.5-1.31,0-1.82l11.28-11.28-15.35-15.35-11.28,11.28c-.5,.5-1.31,.5-1.82,0s-.5-1.31,0-1.82l12.19-12.19c.5-.5,1.31-.5,1.82,0l17.17,17.17c.5,.5,.5,1.31,0,1.82l-12.19,12.19c-.25,.25-.58,.38-.91,.38Z"/>
        <path class="cls-1" d="M232.85,52.93c-.33,0-.66-.13-.91-.38-.5-.5-.5-1.31,0-1.82l15.33-15.33-8.7-8.7-15.33,15.33c-.5,.5-1.31,.5-1.82,0-.5-.5-.5-1.31,0-1.82l16.24-16.24c.5-.5,1.31-.5,1.82,0l10.51,10.51c.24,.24,.38,.57,.38,.91s-.14,.67-.38,.91l-16.24,16.24c-.25,.25-.58,.38-.91,.38Z"/>
        <path class="cls-1" d="M231.91,47.94c-.33,0-.66-.13-.91-.38-.5-.5-.5-1.31,0-1.82l13.31-13.31-2.77-2.77-13.31,13.31c-.5,.5-1.31,.5-1.82,0s-.5-1.31,0-1.82l14.21-14.21c.24-.24,.57-.38,.91-.38s.67,.14,.91,.38l4.58,4.58c.5,.5,.5,1.31,0,1.82l-14.21,14.21c-.25,.25-.58,.38-.91,.38Z"/>
        <path class="cls-1" d="M275.52,58.42c-.33,0-.66-.13-.91-.38l-11.35-11.35c-2.03,.8-4.42,.35-6.01-1.23l-25.89-25.89c-1.05-1.05-1.63-2.46-1.63-3.95s.58-2.89,1.63-3.95c2.18-2.18,5.72-2.18,7.89,0l35.72,35.72c.5,.5,.5,1.31,0,1.82s-1.31,.5-1.82,0L237.44,13.49c-1.17-1.17-3.08-1.17-4.26,0-.57,.57-.88,1.32-.88,2.13s.31,1.56,.88,2.13l25.89,25.89c.99,.99,2.57,1.16,3.75,.4,.51-.32,1.18-.25,1.6,.17l12.01,12.01c.5,.5,.5,1.31,0,1.82-.25,.25-.58,.38-.91,.38Z"/>
        <path class="cls-1" d="M210.93,48c-.71,0-1.28-.58-1.28-1.28v-1.03c0-.71,.58-1.28,1.28-1.28s1.28,.58,1.28,1.28v1.03c0,.71-.58,1.28-1.28,1.28Z"/>
        <path class="cls-1" d="M210.93,53.14c-.71,0-1.28-.58-1.28-1.28v-1.03c0-.71,.58-1.28,1.28-1.28s1.28,.58,1.28,1.28v1.03c0,.71-.58,1.28-1.28,1.28Z"/>
        <path class="cls-1" d="M214.01,50.05h-1.03c-.71,0-1.28-.57-1.28-1.28s.58-1.28,1.28-1.28h1.03c.71,0,1.28,.58,1.28,1.28s-.58,1.28-1.28,1.28Z"/>
        <path class="cls-1" d="M208.87,50.05h-1.03c-.71,0-1.28-.57-1.28-1.28s.58-1.28,1.28-1.28h1.03c.71,0,1.28,.58,1.28,1.28s-.58,1.28-1.28,1.28Z"/>
      </g>
      <g>
        <path class="cls-1" d="M147.65,22.84c-.11,0-.22-.01-.34-.05-5.8-1.58-9.19-4.72-9.34-4.85-.52-.49-.54-1.3-.06-1.82,.49-.52,1.3-.54,1.81-.06,.03,.03,3.1,2.85,8.25,4.25,.69,.19,1.09,.89,.9,1.58-.16,.57-.67,.95-1.24,.95Z"/>
        <path class="cls-1" d="M152.65,86.39c-.49,0-.98-.07-1.47-.21-2.59-.73-4.33-3.2-4.33-6.14v-8.25c0-5.07-3.59-9.2-8-9.2s-8,4.13-8,9.2v8.25c0,2.94-1.74,5.41-4.33,6.14-2.39,.67-4.83-.34-6.21-2.58-6.57-10.65-9.5-24.59-10.79-34.41-.09-.65,.33-1.26,.97-1.42,.18-.04,.33-.1,.47-.17,22.95-12.52,20.72-27.93,18.69-33.97-.14-.43-.05-.9,.25-1.25,.3-.34,.76-.5,1.2-.43,2.76,.5,5.42,1.67,7.76,3.41,3.23-2.42,6.97-3.69,10.86-3.69,10.83,0,19.64,9.87,19.64,22.01,0,1.24-.08,30.67-11.96,49.9-1.1,1.78-2.87,2.79-4.74,2.79Zm-40.45-36.54c1.33,9.5,4.18,22.49,10.3,32.4,.79,1.28,2.04,1.83,3.32,1.46,1.14-.32,2.46-1.48,2.46-3.67v-8.25c0-6.49,4.74-11.77,10.57-11.77s10.57,5.28,10.57,11.77v8.25c0,2.19,1.33,3.35,2.46,3.67,1.29,.37,2.53-.18,3.32-1.46,11.5-18.62,11.58-48.26,11.58-48.55,0-10.72-7.66-19.44-17.07-19.44-3.62,0-7.09,1.3-10.04,3.75-.48,.4-1.17,.4-1.64,0-1.61-1.34-3.42-2.35-5.32-2.98,1.84,7.69,1.75,22.68-20.51,34.83Z"/>
        <path class="cls-1" d="M110.06,50.4c-.64,0-1.28-.14-1.88-.42-1.29-.6-2.19-1.75-2.46-3.15-1.51-7.57-2.98-21.58,4.08-30.4,3.89-4.86,9.82-7.43,17.62-7.62,1.82-.04,3.54,1.07,4.21,2.77,2.11,5.34,6.96,23.87-19.44,38.27-.67,.37-1.4,.55-2.13,.55ZM127.53,11.38c-7.06,.17-12.33,2.41-15.73,6.66-6.41,8.01-4.99,21.17-3.57,28.3,.12,.59,.49,1.07,1.03,1.32,.55,.26,1.16,.24,1.69-.05,23.88-13.03,20.74-28.87,18.29-35.07-.27-.69-.96-1.15-1.71-1.15Z"/>
        <path class="cls-1" d="M155.51,35.59c-.71,0-1.28-.58-1.28-1.28v-1.13c0-.71,.58-1.28,1.28-1.28s1.28,.58,1.28,1.28v1.13c0,.71-.58,1.28-1.28,1.28Z"/>
        <path class="cls-1" d="M155.51,41.23c-.71,0-1.28-.58-1.28-1.28v-1.13c0-.71,.58-1.28,1.28-1.28s1.28,.58,1.28,1.28v1.13c0,.71-.58,1.28-1.28,1.28Z"/>
        <path class="cls-1" d="M158.9,37.85h-1.13c-.71,0-1.28-.58-1.28-1.28s.58-1.28,1.28-1.28h1.13c.71,0,1.28,.58,1.28,1.28s-.58,1.28-1.28,1.28Z"/>
        <path class="cls-1" d="M153.25,37.85h-1.13c-.71,0-1.28-.58-1.28-1.28s.57-1.28,1.28-1.28h1.13c.71,0,1.28,.58,1.28,1.28s-.58,1.28-1.28,1.28Z"/>
      </g>
      <g>
        <path class="cls-1" d="M547.53,20.88c-.11,0-.21-.01-.32-.04-6.39-1.61-10.12-4.84-10.28-4.97-.55-.48-.6-1.3-.12-1.85,.48-.54,1.3-.6,1.85-.13,.05,.05,3.47,2.96,9.2,4.41,.7,.18,1.13,.89,.95,1.59-.15,.59-.68,.99-1.27,.99Z"/>
        <path class="cls-1" d="M522.5,86.39c-2.02,0-3.91-1.02-5.12-2.84-13.16-19.84-13.26-50.19-13.25-51.47,0-12.5,9.71-22.67,21.64-22.67,4.31,0,8.45,1.33,12.03,3.85,3.58-2.52,7.72-3.85,12.03-3.85,6.7,0,12.91,3.17,17.05,8.71,.43,.58,.31,1.4-.27,1.83-.58,.43-1.4,.31-1.83-.27-3.64-4.87-9.08-7.66-14.95-7.66-4.05,0-7.93,1.35-11.23,3.89-.47,.37-1.13,.37-1.6,0-3.29-2.55-7.17-3.89-11.23-3.89-10.49,0-19.02,9-19.02,20.05,0,.31,.1,30.85,12.82,50.02,1.1,1.66,2.78,1.87,3.98,1.51,1.23-.37,2.66-1.58,2.66-3.75v-8.5c0-6.68,5.2-12.12,11.59-12.12s11.59,5.44,11.59,12.12v8.5c0,2.18,1.43,3.38,2.66,3.75,1.2,.36,2.87,.16,3.98-1.51,4.26-6.43,7.56-14.77,9.81-24.81,.16-.71,.86-1.15,1.56-.99,.71,.16,1.15,.86,.99,1.56-2.32,10.35-5.74,18.99-10.18,25.68-1.56,2.36-4.28,3.36-6.92,2.57-2.75-.83-4.53-3.29-4.53-6.26v-8.5c0-5.24-4.02-9.49-8.97-9.49s-8.97,4.26-8.97,9.49v8.5c0,2.98-1.78,5.43-4.53,6.26-.6,.18-1.2,.27-1.8,.27Z"/>
        <path class="cls-1" d="M578.49,36.02h-30.96c-.44,0-.85-.22-1.1-.59-.24-.37-.28-.84-.11-1.24l3.89-8.97c.21-.48,.68-.79,1.2-.79h23.18c.52,0,.99,.31,1.2,.79l3.89,8.97c.18,.4,.14,.87-.11,1.24-.24,.37-.65,.59-1.1,.59Zm-28.97-2.62h26.97l-2.76-6.35h-21.46l-2.76,6.35Z"/>
        <path class="cls-1" d="M563.01,54.36c-.39,0-.75-.17-1-.46l-15.48-18.34c-.33-.39-.4-.94-.19-1.4,.22-.46,.68-.76,1.19-.76h30.96c.51,0,.97,.3,1.19,.76,.21,.46,.14,1.01-.19,1.4l-15.48,18.34c-.25,.29-.62,.46-1,.46Zm-12.66-18.34l12.66,14.99,12.66-14.99h-25.32Z"/>
        <path class="cls-1" d="M563.01,54.36c-.59,0-1.11-.39-1.26-.96l-5.05-18.34c-.11-.39-.03-.82,.22-1.14,.25-.33,.63-.52,1.04-.52h10.11c.41,0,.79,.19,1.04,.52,.25,.33,.33,.75,.22,1.14l-5.05,18.34c-.16,.57-.67,.96-1.26,.96Zm-3.33-18.34l3.33,12.09,3.33-12.09h-6.66Z"/>
        <path class="cls-1" d="M563.01,36.02c-.28,0-.57-.09-.8-.27l-11.59-8.97c-.57-.44-.68-1.27-.23-1.84,.44-.57,1.27-.68,1.84-.23l10.79,8.35,10.79-8.35c.57-.44,1.39-.34,1.84,.23,.44,.57,.34,1.39-.23,1.84l-11.59,8.97c-.24,.18-.52,.27-.8,.27Z"/>
      </g>
      <g>
        <path class="cls-1" d="M345.62,22.34c-.13,0-.26-.02-.4-.05-5.91-1.6-9.37-4.82-9.52-4.95-.6-.57-.63-1.52-.07-2.13,.57-.6,1.52-.63,2.12-.07,.03,.03,3.1,2.85,8.25,4.24,.8,.22,1.27,1.04,1.06,1.85-.18,.67-.79,1.11-1.45,1.11Z"/>
        <path class="cls-1" d="M350.68,86.54c-.51,0-1.03-.07-1.54-.22-2.71-.77-4.52-3.34-4.52-6.4v-8.33c0-5.01-3.53-9.09-7.88-9.09s-7.88,4.08-7.88,9.09v8.33c0,3.06-1.82,5.63-4.52,6.4-2.5,.71-5.06-.35-6.51-2.7-12.03-19.49-12.12-49.27-12.12-50.52,0-12.37,8.99-22.44,20.05-22.44,3.93,0,7.7,1.27,10.97,3.68,3.27-2.41,7.04-3.68,10.97-3.68,11.06,0,20.05,10.07,20.05,22.44,0,1.26-.08,31.04-12.12,50.52-1.15,1.86-3,2.92-4.96,2.92Zm-13.94-27.04c6,0,10.88,5.42,10.88,12.09v8.33c0,2.1,1.26,3.2,2.34,3.51,1.21,.34,2.38-.17,3.13-1.39,11.58-18.75,11.67-48.64,11.67-48.94,0-10.72-7.64-19.44-17.04-19.44-3.61,0-7.07,1.29-10.01,3.74-.56,.46-1.37,.46-1.92,0-2.94-2.44-6.4-3.74-10.01-3.74-9.4,0-17.04,8.72-17.04,19.44,0,.3,.09,30.19,11.67,48.94,.75,1.21,1.92,1.73,3.13,1.39,1.08-.31,2.34-1.41,2.34-3.51v-8.33c0-6.67,4.88-12.09,10.88-12.09Z"/>
        <path class="cls-1" d="M336.74,48.78c-15.97,0-46.16-2.03-46.16-9.73,0-1.24,0-5,16.4-7.66,.82-.13,1.59,.42,1.73,1.24,.13,.82-.42,1.59-1.24,1.73-11.52,1.87-13.88,4.18-13.88,4.69,0,2.28,15.23,6.73,43.15,6.73s43.15-4.44,43.15-6.73c0-.52-2.36-2.82-13.88-4.69-.82-.13-1.38-.91-1.24-1.73,.13-.82,.9-1.38,1.73-1.24,16.4,2.66,16.4,6.42,16.4,7.66,0,7.7-30.19,9.73-46.16,9.73Z"/>
        <path class="cls-1" d="M306.66,69.18c-1.06,0-1.93-.29-2.56-.92-1.34-1.34-2.37-4.24,4.06-13.96,.46-.69,1.39-.88,2.08-.42,.69,.46,.88,1.39,.42,2.08-4.83,7.3-4.74,9.88-4.45,10.17,1.61,1.62,15.53-6.01,35.27-25.76,19.74-19.74,27.37-33.65,25.76-35.27-.4-.4-4.49-.17-15.81,8.49-.66,.51-1.6,.38-2.11-.28-.5-.66-.38-1.6,.28-2.11,15.86-12.12,18.8-9.19,19.76-8.22,5.44,5.44-14.47,28.23-25.76,39.52-9.97,9.97-28.93,26.68-36.96,26.68Z"/>
        <path class="cls-1" d="M366.77,69.26c-2.2,0-5.94-1.33-12.67-5.96-7.14-4.91-15.75-12.3-24.24-20.8-8.5-8.5-15.88-17.11-20.8-24.24-7.4-10.74-6.37-13.86-4.96-15.28,.97-.96,3.9-3.9,19.76,8.22,.66,.5,.79,1.45,.28,2.11-.5,.66-1.45,.79-2.11,.28-11.32-8.65-15.41-8.89-15.81-8.49-.32,.32-.37,3.21,5.31,11.45,4.81,6.99,12.08,15.45,20.45,23.82,19.74,19.74,33.65,27.37,35.27,25.76,.29-.29,.39-2.87-4.45-10.17-.46-.69-.27-1.63,.42-2.08,.69-.46,1.63-.27,2.08,.42,6.43,9.72,5.4,12.62,4.06,13.96-.53,.53-1.3,1-2.61,1Z"/>
      </g>
    </g>
  </g>
</svg>